<mxfile host="app.diagrams.net" modified="2020-06-21T14:39:56.511Z" agent="5.0 (Windows NT 10.0; Win64; x64) AppleWebKit/537.36 (KHTML, like Gecko) Chrome/83.0.4103.106 Safari/537.36" etag="NNYo0Pa2Jra_dDAITRrd" version="13.3.0" type="github">
  <diagram id="0j7kQBx2fWOavdLrpgRF" name="Page-1">
    <mxGraphModel dx="1038" dy="499" grid="1" gridSize="10" guides="1" tooltips="1" connect="1" arrows="1" fold="1" page="1" pageScale="1" pageWidth="827" pageHeight="1169" math="0" shadow="0">
      <root>
        <mxCell id="0" />
        <mxCell id="1" parent="0" />
        <mxCell id="P_k4eneQ54_tybDXNxLD-59" value="" style="rounded=1;whiteSpace=wrap;html=1;fillColor=none;" parent="1" vertex="1">
          <mxGeometry x="190" y="620" width="180" height="230" as="geometry" />
        </mxCell>
        <mxCell id="P_k4eneQ54_tybDXNxLD-54" style="edgeStyle=orthogonalEdgeStyle;rounded=0;orthogonalLoop=1;jettySize=auto;html=1;exitX=0.5;exitY=0;exitDx=0;exitDy=0;entryX=0.5;entryY=1;entryDx=0;entryDy=0;" parent="1" source="P_k4eneQ54_tybDXNxLD-51" target="P_k4eneQ54_tybDXNxLD-52" edge="1">
          <mxGeometry relative="1" as="geometry" />
        </mxCell>
        <mxCell id="P_k4eneQ54_tybDXNxLD-51" value="" style="rounded=1;whiteSpace=wrap;html=1;fillColor=none;" parent="1" vertex="1">
          <mxGeometry x="205" y="1014.5" width="420" height="100" as="geometry" />
        </mxCell>
        <mxCell id="P_k4eneQ54_tybDXNxLD-3" style="edgeStyle=orthogonalEdgeStyle;rounded=0;orthogonalLoop=1;jettySize=auto;html=1;exitX=0;exitY=0.5;exitDx=0;exitDy=0;entryX=1;entryY=0.5;entryDx=0;entryDy=0;" parent="1" source="P_k4eneQ54_tybDXNxLD-2" target="P_k4eneQ54_tybDXNxLD-53" edge="1">
          <mxGeometry relative="1" as="geometry">
            <mxPoint x="340" y="1065" as="targetPoint" />
          </mxGeometry>
        </mxCell>
        <mxCell id="P_k4eneQ54_tybDXNxLD-2" value="Increasing infrastructure investment of technology transfer" style="ellipse;whiteSpace=wrap;html=1;" parent="1" vertex="1">
          <mxGeometry x="462" y="1019.5" width="153" height="91" as="geometry" />
        </mxCell>
        <mxCell id="P_k4eneQ54_tybDXNxLD-22" value="" style="shape=singleArrow;direction=north;whiteSpace=wrap;html=1;arrowWidth=0.22222188313802083;arrowSize=0.509999694824221;" parent="1" vertex="1">
          <mxGeometry x="400" y="829" width="30" height="50" as="geometry" />
        </mxCell>
        <mxCell id="P_k4eneQ54_tybDXNxLD-43" value="" style="endArrow=none;dashed=1;html=1;" parent="1" edge="1">
          <mxGeometry width="50" height="50" relative="1" as="geometry">
            <mxPoint x="40" y="859" as="sourcePoint" />
            <mxPoint x="740" y="859" as="targetPoint" />
          </mxGeometry>
        </mxCell>
        <mxCell id="P_k4eneQ54_tybDXNxLD-44" value="" style="endArrow=none;dashed=1;html=1;" parent="1" edge="1">
          <mxGeometry width="50" height="50" relative="1" as="geometry">
            <mxPoint x="40" y="610" as="sourcePoint" />
            <mxPoint x="740" y="610" as="targetPoint" />
          </mxGeometry>
        </mxCell>
        <mxCell id="P_k4eneQ54_tybDXNxLD-45" value="" style="endArrow=none;dashed=1;html=1;" parent="1" edge="1">
          <mxGeometry width="50" height="50" relative="1" as="geometry">
            <mxPoint x="40" y="420" as="sourcePoint" />
            <mxPoint x="740" y="420" as="targetPoint" />
          </mxGeometry>
        </mxCell>
        <mxCell id="P_k4eneQ54_tybDXNxLD-46" value="&lt;span style=&quot;font-family: &amp;#34;cambria&amp;#34; , serif&quot;&gt;&lt;font style=&quot;font-size: 18px&quot;&gt;Customer&lt;/font&gt;&lt;/span&gt;" style="text;html=1;strokeColor=none;fillColor=none;align=center;verticalAlign=middle;whiteSpace=wrap;rounded=0;" parent="1" vertex="1">
          <mxGeometry x="60" y="437.5" width="40" height="20" as="geometry" />
        </mxCell>
        <mxCell id="P_k4eneQ54_tybDXNxLD-47" value="&lt;font style=&quot;font-size: 18px&quot;&gt;&lt;span style=&quot;font-family: &amp;#34;cambria&amp;#34; , serif&quot;&gt;Internal&lt;/span&gt;&lt;span style=&quot;font-family: &amp;#34;times new roman&amp;#34; , serif&quot;&gt; &lt;/span&gt;&lt;span style=&quot;font-family: &amp;#34;cambria&amp;#34; , serif&quot;&gt;Process&lt;/span&gt;&lt;/font&gt;" style="text;html=1;strokeColor=none;fillColor=none;align=center;verticalAlign=middle;whiteSpace=wrap;rounded=0;" parent="1" vertex="1">
          <mxGeometry x="60" y="630" width="40" height="20" as="geometry" />
        </mxCell>
        <mxCell id="P_k4eneQ54_tybDXNxLD-48" value="&lt;span style=&quot;font-family: &amp;#34;cambria&amp;#34; , serif&quot;&gt;&lt;font style=&quot;font-size: 18px&quot;&gt;Learning&lt;br/&gt;and Growth&amp;nbsp;&lt;/font&gt;&lt;/span&gt;" style="text;html=1;strokeColor=none;fillColor=none;align=center;verticalAlign=middle;whiteSpace=wrap;rounded=0;" parent="1" vertex="1">
          <mxGeometry x="60" y="899" width="40" height="20" as="geometry" />
        </mxCell>
        <mxCell id="P_k4eneQ54_tybDXNxLD-49" value="&lt;span style=&quot;font-family: &amp;#34;cambria&amp;#34; , serif&quot;&gt;&lt;font style=&quot;font-size: 18px&quot;&gt;Financial&lt;/font&gt;&lt;/span&gt;" style="text;html=1;strokeColor=none;fillColor=none;align=center;verticalAlign=middle;whiteSpace=wrap;rounded=0;" parent="1" vertex="1">
          <mxGeometry x="60" y="186" width="40" height="20" as="geometry" />
        </mxCell>
        <mxCell id="P_k4eneQ54_tybDXNxLD-52" value="Management of information and technology" style="ellipse;whiteSpace=wrap;html=1;" parent="1" vertex="1">
          <mxGeometry x="338.5" y="889" width="153" height="91" as="geometry" />
        </mxCell>
        <mxCell id="P_k4eneQ54_tybDXNxLD-53" value="Strengthening of manpower for technology transfer" style="ellipse;whiteSpace=wrap;html=1;" parent="1" vertex="1">
          <mxGeometry x="231" y="1019.5" width="153" height="91" as="geometry" />
        </mxCell>
        <mxCell id="P_k4eneQ54_tybDXNxLD-61" style="edgeStyle=orthogonalEdgeStyle;rounded=0;orthogonalLoop=1;jettySize=auto;html=1;entryX=1;entryY=0.5;entryDx=0;entryDy=0;" parent="1" source="P_k4eneQ54_tybDXNxLD-56" target="P_k4eneQ54_tybDXNxLD-58" edge="1">
          <mxGeometry relative="1" as="geometry" />
        </mxCell>
        <mxCell id="P_k4eneQ54_tybDXNxLD-56" value="Protection of technology information" style="ellipse;whiteSpace=wrap;html=1;" parent="1" vertex="1">
          <mxGeometry x="502" y="750" width="153" height="91" as="geometry" />
        </mxCell>
        <mxCell id="g0BQueZOU19tRnw__bpJ-1" style="rounded=0;orthogonalLoop=1;jettySize=auto;html=1;exitX=1;exitY=0;exitDx=0;exitDy=0;entryX=0;entryY=1;entryDx=0;entryDy=0;" parent="1" source="P_k4eneQ54_tybDXNxLD-57" target="P_k4eneQ54_tybDXNxLD-62" edge="1">
          <mxGeometry relative="1" as="geometry" />
        </mxCell>
        <mxCell id="P_k4eneQ54_tybDXNxLD-57" value="Improvement of product quality" style="ellipse;whiteSpace=wrap;html=1;" parent="1" vertex="1">
          <mxGeometry x="205" y="630" width="153" height="91" as="geometry" />
        </mxCell>
        <mxCell id="P_k4eneQ54_tybDXNxLD-58" value="&lt;span&gt;Development of new product through technology transfer&lt;/span&gt;" style="ellipse;whiteSpace=wrap;html=1;" parent="1" vertex="1">
          <mxGeometry x="205" y="750" width="153" height="91" as="geometry" />
        </mxCell>
        <mxCell id="P_k4eneQ54_tybDXNxLD-76" style="edgeStyle=orthogonalEdgeStyle;rounded=0;orthogonalLoop=1;jettySize=auto;html=1;exitX=0.5;exitY=0;exitDx=0;exitDy=0;entryX=0.5;entryY=1;entryDx=0;entryDy=0;startArrow=none;startFill=0;" parent="1" source="P_k4eneQ54_tybDXNxLD-62" target="P_k4eneQ54_tybDXNxLD-69" edge="1">
          <mxGeometry relative="1" as="geometry" />
        </mxCell>
        <mxCell id="P_k4eneQ54_tybDXNxLD-62" value="Increase customer satisfaction after sales of product" style="ellipse;whiteSpace=wrap;html=1;" parent="1" vertex="1">
          <mxGeometry x="502" y="470" width="153" height="91" as="geometry" />
        </mxCell>
        <mxCell id="P_k4eneQ54_tybDXNxLD-77" style="rounded=0;orthogonalLoop=1;jettySize=auto;html=1;exitX=1;exitY=0;exitDx=0;exitDy=0;entryX=0;entryY=1;entryDx=0;entryDy=0;startArrow=none;startFill=0;" parent="1" source="P_k4eneQ54_tybDXNxLD-63" target="P_k4eneQ54_tybDXNxLD-69" edge="1">
          <mxGeometry relative="1" as="geometry" />
        </mxCell>
        <mxCell id="P_k4eneQ54_tybDXNxLD-63" value="Satisfaction of customer request through new products" style="ellipse;whiteSpace=wrap;html=1;" parent="1" vertex="1">
          <mxGeometry x="205" y="470" width="153" height="91" as="geometry" />
        </mxCell>
        <mxCell id="P_k4eneQ54_tybDXNxLD-64" value="" style="endArrow=classic;html=1;" parent="1" source="P_k4eneQ54_tybDXNxLD-57" target="P_k4eneQ54_tybDXNxLD-63" edge="1">
          <mxGeometry width="50" height="50" relative="1" as="geometry">
            <mxPoint x="290" y="660" as="sourcePoint" />
            <mxPoint x="340" y="610" as="targetPoint" />
          </mxGeometry>
        </mxCell>
        <mxCell id="P_k4eneQ54_tybDXNxLD-68" value="" style="curved=1;endArrow=classic;html=1;exitX=0;exitY=0.5;exitDx=0;exitDy=0;startArrow=classic;startFill=1;" parent="1" source="P_k4eneQ54_tybDXNxLD-58" target="P_k4eneQ54_tybDXNxLD-63" edge="1">
          <mxGeometry width="50" height="50" relative="1" as="geometry">
            <mxPoint x="290" y="660" as="sourcePoint" />
            <mxPoint x="340" y="610" as="targetPoint" />
            <Array as="points">
              <mxPoint x="150" y="750" />
              <mxPoint x="160" y="590" />
            </Array>
          </mxGeometry>
        </mxCell>
        <mxCell id="P_k4eneQ54_tybDXNxLD-69" value="Increasing income through product development" style="ellipse;whiteSpace=wrap;html=1;" parent="1" vertex="1">
          <mxGeometry x="502" y="300" width="153" height="91" as="geometry" />
        </mxCell>
        <mxCell id="P_k4eneQ54_tybDXNxLD-70" value="Maximizing business value e through technology transfer" style="ellipse;whiteSpace=wrap;html=1;" parent="1" vertex="1">
          <mxGeometry x="203.5" y="300" width="153" height="91" as="geometry" />
        </mxCell>
        <mxCell id="P_k4eneQ54_tybDXNxLD-71" value="Maintaining growth capability through new Products" style="ellipse;whiteSpace=wrap;html=1;" parent="1" vertex="1">
          <mxGeometry x="349" y="180" width="153" height="91" as="geometry" />
        </mxCell>
        <mxCell id="P_k4eneQ54_tybDXNxLD-73" value="" style="endArrow=classic;startArrow=classic;html=1;entryX=0;entryY=0.5;entryDx=0;entryDy=0;exitX=1;exitY=0.5;exitDx=0;exitDy=0;" parent="1" source="P_k4eneQ54_tybDXNxLD-70" target="P_k4eneQ54_tybDXNxLD-69" edge="1">
          <mxGeometry width="50" height="50" relative="1" as="geometry">
            <mxPoint x="290" y="360" as="sourcePoint" />
            <mxPoint x="340" y="310" as="targetPoint" />
          </mxGeometry>
        </mxCell>
        <mxCell id="P_k4eneQ54_tybDXNxLD-74" value="" style="endArrow=classic;html=1;exitX=1;exitY=0;exitDx=0;exitDy=0;" parent="1" source="P_k4eneQ54_tybDXNxLD-70" target="P_k4eneQ54_tybDXNxLD-71" edge="1">
          <mxGeometry width="50" height="50" relative="1" as="geometry">
            <mxPoint x="330" y="320" as="sourcePoint" />
            <mxPoint x="340" y="310" as="targetPoint" />
          </mxGeometry>
        </mxCell>
        <mxCell id="P_k4eneQ54_tybDXNxLD-75" value="" style="endArrow=classic;html=1;" parent="1" source="P_k4eneQ54_tybDXNxLD-69" target="P_k4eneQ54_tybDXNxLD-71" edge="1">
          <mxGeometry width="50" height="50" relative="1" as="geometry">
            <mxPoint x="290" y="360" as="sourcePoint" />
            <mxPoint x="340" y="310" as="targetPoint" />
          </mxGeometry>
        </mxCell>
        <mxCell id="P_k4eneQ54_tybDXNxLD-78" value="" style="curved=1;endArrow=classic;html=1;exitX=0;exitY=0.5;exitDx=0;exitDy=0;" parent="1" source="P_k4eneQ54_tybDXNxLD-58" target="P_k4eneQ54_tybDXNxLD-70" edge="1">
          <mxGeometry width="50" height="50" relative="1" as="geometry">
            <mxPoint x="290" y="860" as="sourcePoint" />
            <mxPoint x="90" y="580" as="targetPoint" />
            <Array as="points">
              <mxPoint x="100" y="770" />
              <mxPoint x="160" y="470" />
            </Array>
          </mxGeometry>
        </mxCell>
        <mxCell id="_CoRsBTw2CRJbUEN5mJu-1" value="&lt;font face=&quot;cambria, serif&quot; style=&quot;font-size: 24px&quot;&gt;&lt;u&gt;Strategy Map of Firm A&lt;/u&gt;&lt;/font&gt;" style="text;html=1;strokeColor=none;fillColor=none;align=center;verticalAlign=middle;whiteSpace=wrap;rounded=0;" vertex="1" parent="1">
          <mxGeometry x="250" y="90" width="290" height="20" as="geometry" />
        </mxCell>
      </root>
    </mxGraphModel>
  </diagram>
</mxfile>
